# xmcd
#
# Track frame offsets:
#   150
#   16220
#   35797
#   59387
#   79114
#   101544
#   118265
#   137034
#   156120
#   175262
#   191945
#   208349
#   227815
#   247375
#   264197
#   286519
#   307841
#   329268
#
# Disc length: 4621 seconds
#
# Revision: 0
# Processed by: cddbd v1.5.2PL0 Copyright (c) Steve Scherf et al.
# Submitted via: GXTranscoder 2.0.1939
#
DISCID=04120b12
DTITLE=elefante - exitos
DYEAR=1900
DGENRE=Latin
TTITLE0=Desde que llegaste
TTITLE1=De la noche a la manana
TTITLE2=Asi es la vida
TTITLE3=La que se fue
TTITLE4=Milagro de amor
TTITLE5=Gordito Track
TTITLE6=Amores prohibidos
TTITLE7=Vamos
TTITLE8=Caminar
TTITLE9=La limipia
TTITLE10=El abandonado
TTITLE11=Aguacero
TTITLE12=La historia sin fin
TTITLE13=Lo que andabamos buscando
TTITLE14=Adonde vayas
TTITLE15=La condena
TTITLE16=Yo soy igual que tu
TTITLE17=Sabor a chocolate
EXTD=
EXTT0=
EXTT1=
EXTT2=
EXTT3=
EXTT4=
EXTT5=
EXTT6=
EXTT7=
EXTT8=
EXTT9=
EXTT10=
EXTT11=
EXTT12=
EXTT13=
EXTT14=
EXTT15=
EXTT16=
EXTT17=
PLAYORDER=
